<svg xmlns="http://www.w3.org/2000/svg" width="15.458" height="15.458" viewBox="0 0 15.458 15.458">
  <g id="user_5_" data-name="user (5)" transform="translate(0)">
    <g id="Group_2017" data-name="Group 2017" transform="translate(0)">
      <path id="Path_1148" data-name="Path 1148" d="M13.194,9.993a7.7,7.7,0,0,0-2.937-1.842,4.468,4.468,0,1,0-5.056,0A7.741,7.741,0,0,0,0,15.458H1.208a6.521,6.521,0,0,1,13.043,0h1.208A7.679,7.679,0,0,0,13.194,9.993ZM7.729,7.729A3.261,3.261,0,1,1,10.99,4.468,3.264,3.264,0,0,1,7.729,7.729Z" transform="translate(0)" fill="#6d6d6d"/>
    </g>
  </g>
</svg>
